<svg width="21" height="21" viewBox="0 0 21 21" fill="none" xmlns="http://www.w3.org/2000/svg">
<g clip-path="url(#clip0_159_47)">
<rect width="20.0301" height="20.0301" rx="5.00752" fill="#4F4F4F"/>
<path d="M15.7991 5.76665C15.7248 5.69169 15.6363 5.63219 15.5388 5.59158C15.4414 5.55097 15.3368 5.53007 15.2313 5.53007C15.1257 5.53007 15.0211 5.55097 14.9237 5.59158C14.8262 5.63219 14.7377 5.69169 14.6634 5.76665L8.70479 11.7333L6.20137 9.22184C6.12418 9.14727 6.03304 9.08863 5.93318 9.04928C5.83332 9.00992 5.72669 8.99062 5.61937 8.99248C5.51205 8.99434 5.40615 9.01731 5.30771 9.0601C5.20927 9.10288 5.12022 9.16464 5.04565 9.24184C4.97107 9.31904 4.91244 9.41017 4.87308 9.51003C4.83373 9.60989 4.81443 9.71652 4.81628 9.82384C4.81814 9.93116 4.84112 10.0371 4.8839 10.1355C4.92669 10.2339 4.98844 10.323 5.06564 10.3976L8.13692 13.4688C8.21127 13.5438 8.29973 13.6033 8.3972 13.6439C8.49466 13.6845 8.5992 13.7054 8.70479 13.7054C8.81037 13.7054 8.91491 13.6845 9.01238 13.6439C9.10984 13.6033 9.1983 13.5438 9.27265 13.4688L15.7991 6.94238C15.8803 6.86748 15.9451 6.77658 15.9894 6.6754C16.0337 6.57423 16.0566 6.46497 16.0566 6.35451C16.0566 6.24406 16.0337 6.1348 15.9894 6.03362C15.9451 5.93245 15.8803 5.84155 15.7991 5.76665Z" fill="white"/>
</g>
<rect x="0.834586" y="0.834586" width="18.3609" height="18.3609" rx="4.17293" stroke="#4F4F4F" stroke-width="1.66917"/>
<defs>
<clipPath id="clip0_159_47">
<rect width="20.0301" height="20.0301" rx="5.00752" fill="white"/>
</clipPath>
</defs>
</svg>
